<svg id="Layer_1" data-name="Layer 1" xmlns="http://www.w3.org/2000/svg" viewBox="0 0 512 512"><defs><style>.cls-1{fill:#efefef;}</style></defs><title>linked-in</title><rect class="cls-1" x="7.76" y="170.82" width="109.37" height="328.44"/><path class="cls-1" d="M476.07,200.83q-34.47-37.62-91.14-37.63a131.63,131.63,0,0,0-38,5.14q-17.07,5.15-28.83,14.42a123.46,123.46,0,0,0-31.65,34.77V170.82h-109l.34,15.91q.33,15.92.33,98.1t-.66,214.44h109V316q0-16.9,3.64-26.85a70.38,70.38,0,0,1,21.05-28.33q14.08-11.44,35-11.44,28.5,0,41.93,19.71t13.42,54.53V499.26h109V311Q510.53,238.44,476.07,200.83Z"/><path class="cls-1" d="M63.11,12.73q-27.51,0-44.58,16.08T1.46,69.41q0,24.18,16.57,40.43t43.75,16.24h.66q27.86,0,44.91-16.24t16.74-40.43q-.33-24.54-16.9-40.6T63.11,12.73Z"/></svg>