<svg id="Layer_1" data-name="Layer 1" xmlns="http://www.w3.org/2000/svg" xmlns:xlink="http://www.w3.org/1999/xlink" viewBox="0 0 1078 1078"><defs><style>.cls-1{fill:url(#linear-gradient);}.cls-2,.cls-7{fill:#ec5d10;}.cls-2{opacity:0.1;}.cls-3{fill:#e8b28e;}.cls-4{fill:#f06a00;}.cls-5{fill:#cbb0a0;}.cls-6{fill:#b29586;}.cls-8{fill:#f8eee4;}.cls-9{fill:#e5ddd6;}.cls-10{fill:#ffa052;}.cls-11,.cls-12{fill:#f27b3b;}.cls-11{opacity:0.5;}.cls-13{fill:#edd0b9;}</style><linearGradient id="linear-gradient" x1="128.64" y1="194.05" x2="2724.83" y2="2790.24" gradientUnits="userSpaceOnUse"><stop offset="0" stop-color="#ec5d10"/><stop offset="1" stop-color="#802d25"/></linearGradient></defs><title>Development_ServiceIcon</title><path class="cls-1" d="M647.53,204.52c-43-105.71-147.06-180.08-268.4-179.34C224.33,26.14,97.06,151,93.3,305.75a286.69,286.69,0,0,0,72.93,198.67c37.37,41.86,56.12,97,54.23,153.08q-.37,11.18-.1,22.52c4.95,203.52,178.81,372.92,382.39,372.8,211-.13,382-171.23,382-382.27,0-154.69-91.89-287.91-224.06-348.08A220.75,220.75,0,0,1,647.53,204.52Z"/><path class="cls-2" d="M940.42,205.84V716.15a30.11,30.11,0,0,1-30.1,30.11H167.68a30.12,30.12,0,0,1-30.1-30.11V205.84a30.12,30.12,0,0,1,30.1-30.11H910.32a30.11,30.11,0,0,1,30.1,30.11Z"/><path class="cls-3" d="M666.12,159.25a10,10,0,0,1-7.09-2.94l-22.12-22.12a10,10,0,0,1,0-14.19L659,97.89a10,10,0,0,1,14.19,0L695.34,120a10,10,0,0,1,0,14.19l-22.12,22.12A10,10,0,0,1,666.12,159.25ZM658.2,127.1l7.92,7.92,7.93-7.92-7.93-7.93Z"/><path class="cls-4" d="M189.8,891.5a10,10,0,0,1-7.1-2.94l-22.11-22.11a10,10,0,0,1,0-14.2l22.11-22.11a10,10,0,0,1,14.19,0L219,852.25a10,10,0,0,1,0,14.2l-22.12,22.11a10,10,0,0,1-7.09,2.94Zm-7.92-32.15,7.92,7.92,7.92-7.92-7.92-7.92Z"/><path class="cls-3" d="M239.3,983.05a10,10,0,0,1-10-10,12.09,12.09,0,0,0-12.08-12.08,10,10,0,1,1,0-20.07,12.09,12.09,0,0,0,12.08-12.08,10,10,0,1,1,20.07,0,12.09,12.09,0,0,0,12.08,12.08,10,10,0,0,1,0,20.07A12.09,12.09,0,0,0,249.34,973,10,10,0,0,1,239.3,983.05Z"/><path class="cls-4" d="M769.92,183.47a10,10,0,0,1-10-10,12.09,12.09,0,0,0-12.08-12.08,10,10,0,0,1,0-20.07,12.09,12.09,0,0,0,12.08-12.08,10,10,0,1,1,20.07,0A12.09,12.09,0,0,0,792,141.29a10,10,0,1,1,0,20.07A12.09,12.09,0,0,0,780,173.44,10,10,0,0,1,769.92,183.47Z"/><path class="cls-5" d="M652.82,930.94H425.17l29.67-117.63,15.86-62.82H607.3l15.85,62.82Z"/><path class="cls-6" d="M623.15,813.31H454.84l15.86-62.82H607.3Z"/><path class="cls-7" d="M652.83,941H425.17a10,10,0,0,1-9.73-12.49l35.83-142a10,10,0,1,1,19.46,4.91l-32.68,129.5H640L607,790.23a10,10,0,0,1,19.46-4.91l36.12,143.15A10,10,0,0,1,652.83,941Z"/><path class="cls-8" d="M940.42,244.59V754.9A30.12,30.12,0,0,1,910.32,785H167.68a30.11,30.11,0,0,1-30.1-30.11V244.59a30.11,30.11,0,0,1,30.1-30.11H910.32a30.12,30.12,0,0,1,30.1,30.11Z"/><path class="cls-9" d="M910.32,214.48H737.7V785H910.32a30.12,30.12,0,0,0,30.1-30.11V244.59a30.12,30.12,0,0,0-30.1-30.11Z"/><path class="cls-10" d="M903.29,405.46l-14.43-50.68a10.06,10.06,0,0,0-9.65-7.31h-49a10.06,10.06,0,0,0-9.65,7.31l-14.43,50.68a201.85,201.85,0,0,0-56.62,23.44l-46-25.63a10,10,0,0,0-12,1.67l-34.62,34.64a10.06,10.06,0,0,0-1.69,12l25.65,46.05a201.85,201.85,0,0,0-23.46,56.6L606.7,568.66a10,10,0,0,0-7.29,9.65v49a10.05,10.05,0,0,0,7.29,9.65l50.68,14.43a201.15,201.15,0,0,0,14.33,39.76H818A95.68,95.68,0,1,1,940.42,560.21V418.51a201.67,201.67,0,0,0-37.13-13.05Z"/><path class="cls-11" d="M903.29,405.46l-14.43-50.68a10.06,10.06,0,0,0-9.65-7.31h-49a10.06,10.06,0,0,0-9.65,7.31l-14.43,50.68a201.85,201.85,0,0,0-56.62,23.44l-46-25.63a10,10,0,0,0-12,1.67l-34.62,34.64a10.06,10.06,0,0,0-1.69,12l25.65,46.05a201.85,201.85,0,0,0-23.46,56.6L606.7,568.66a10,10,0,0,0-7.29,9.65v49a10.05,10.05,0,0,0,7.29,9.65l50.68,14.43a201.15,201.15,0,0,0,14.33,39.76H818A95.68,95.68,0,1,1,940.42,560.21V418.51a201.67,201.67,0,0,0-37.13-13.05Z"/><path class="cls-12" d="M940.42,311.17V244.6a30.11,30.11,0,0,0-30.1-30.11H167.68a30.11,30.11,0,0,0-30.1,30.11v66.57Z"/><path class="cls-7" d="M940.42,321.21H137.58a10,10,0,1,1,0-20.07H940.42a10,10,0,1,1,0,20.07Z"/><path class="cls-13" d="M137.58,683.87v71A30.11,30.11,0,0,0,167.68,785H910.32a30.11,30.11,0,0,0,30.1-30.11v-71Z"/><path class="cls-7" d="M938.46,693.9h-800c-6,0-10.89-4.49-10.89-10s4.87-10,10.89-10h800c6,0,10.89,4.5,10.89,10S944.48,693.9,938.46,693.9Z"/><path class="cls-7" d="M691.41,941H386.59a10,10,0,0,1,0-20.07H691.41a10,10,0,0,1,0,20.07Z"/><path class="cls-7" d="M214,273a10,10,0,0,1-10-10v-.29a10,10,0,1,1,20.07,0V263A10,10,0,0,1,214,273Z"/><path class="cls-7" d="M252.8,273a10,10,0,0,1-10-10v-.29a10,10,0,1,1,20.07,0V263A10,10,0,0,1,252.8,273Z"/><path class="cls-7" d="M291.58,273a10,10,0,0,1-10-10v-.29a10,10,0,1,1,20.07,0V263A10,10,0,0,1,291.58,273Z"/><path class="cls-7" d="M910.31,204.46H167.68a40.19,40.19,0,0,0-40.14,40.15V754.89A40.19,40.19,0,0,0,167.68,795H910.31a40.19,40.19,0,0,0,40.15-40.15V244.61A40.19,40.19,0,0,0,910.31,204.46Zm20.08,550.43A20.11,20.11,0,0,1,910.31,775H167.68a20.1,20.1,0,0,1-20.07-20.08V244.61a20.1,20.1,0,0,1,20.07-20.08H910.31a20.11,20.11,0,0,1,20.08,20.08Z"/><path class="cls-12" d="M546.44,575.67H211.77a10,10,0,0,1,0-20.1H546.44a10.05,10.05,0,1,1,0,20.1Z"/><path class="cls-7" d="M426,491.39H211.77a10.05,10.05,0,0,1,0-20.1H426a10.05,10.05,0,1,1,0,20.1Z"/><path class="cls-12" d="M546.44,615.55H211.77a10.06,10.06,0,0,1,0-20.11H546.44a10.06,10.06,0,1,1,0,20.11Z"/><path class="cls-7" d="M238.17,431.54a10,10,0,0,1-7.1-2.94l-24.15-24.15a10,10,0,0,1,0-14.19l24.15-24.16a10,10,0,0,1,14.19,14.19L228.2,397.35l17.06,17.06a10,10,0,0,1-7.09,17.13Z"/><path class="cls-7" d="M332,431.54a10,10,0,0,1-7.09-17.13L342,397.35l-17.06-17.06a10,10,0,0,1,14.19-14.19l24.15,24.15a10,10,0,0,1,0,14.2L339.12,428.6A10,10,0,0,1,332,431.54Z"/><path class="cls-7" d="M271.44,431.54a10,10,0,0,1-8.72-15L290,368.26a10,10,0,1,1,17.47,9.87l-27.28,48.31a10,10,0,0,1-8.75,5.1Z"/><path class="cls-8" d="M786,615.55H753.86a6,6,0,0,1-6-6V487.36a6,6,0,0,1,6-6H786a6,6,0,0,1,6,6V609.52A6,6,0,0,1,786,615.55Z"/><path class="cls-8" d="M720.32,615.55H688.2a6,6,0,0,1-6-6V533.94a6,6,0,0,1,6-6h32.12a6,6,0,0,1,6,6v75.58A6,6,0,0,1,720.32,615.55Z"/><path class="cls-8" d="M851.63,615.55H819.52a6,6,0,0,1-6-6V452.29a6,6,0,0,1,6-6h32.11a6,6,0,0,1,6,6V609.52A6,6,0,0,1,851.63,615.55Z"/><circle class="cls-7" cx="644.86" cy="374.38" r="11.22"/><circle class="cls-7" cx="610.91" cy="374.38" r="11.22"/><circle class="cls-7" cx="576.97" cy="374.38" r="11.22"/></svg>