<svg id="Layer_1" data-name="Layer 1" xmlns="http://www.w3.org/2000/svg" xmlns:xlink="http://www.w3.org/1999/xlink" viewBox="0 0 1078 1078"><defs><style>.cls-1{fill:url(#linear-gradient);}.cls-2{fill:#2626bc;opacity:0.11;isolation:isolate;}.cls-3{fill:#f9e0cf;}.cls-4{fill:#edd0b9;}.cls-5{fill:#f27b3b;}.cls-6{fill:#f8eee4;}.cls-7{fill:#ff5ba8;}.cls-8{fill:#ec5d10;}.cls-9{fill:#fffcfa;}.cls-10{fill:#e8b28e;}.cls-11{fill:#f06a00;}</style><linearGradient id="linear-gradient" x1="67.22" y1="188.65" x2="3361.34" y2="2061.6" gradientUnits="userSpaceOnUse"><stop offset="0" stop-color="#ec5d10"/><stop offset="1" stop-color="#c41000"/></linearGradient></defs><title>Launch_ServiceIcon</title><path class="cls-1" d="M88.28,288.06C129.6,168.67,207.37-38.45,373.19,19.33,437.75,41.82,458,127.25,522.92,137.9c61.29,10,113.18-50.18,171.49-61.61,72.44-14.19,149.1,4.8,176.62,75.48C904,236.33,806.9,331.22,830.37,408.44c38.7,127.37,181.78-83.73,207.36,121.82,35.8,287.63-283,799.67-497.82,378.6-108.91-213.51-223-63.77-392.83-170C-14.13,638,35.76,439.78,88.28,288.06Z"/><path class="cls-2" d="M927.56,806.37a234.18,234.18,0,0,0-110.2-175.3h52.22a20.69,20.69,0,0,0,20.69-20.69V449.13a20.69,20.69,0,0,0-20.69-20.69H708.32a20.63,20.63,0,0,0-15.48,7C641.49,296.56,575.76,203,533.64,152.29a41.42,41.42,0,0,0-63.76,0C459.22,165.12,447,180.71,434,199.08V135.14a19.31,19.31,0,0,0-19.3-19.3H239a19.31,19.31,0,0,0-19.31,19.3V278A19.31,19.31,0,0,0,239,297.3H373c-41.67,77-83.31,177.92-110,303.67C163.34,620.61,86.4,703.65,76,806.36A20.65,20.65,0,0,0,96.57,829h138.7q-.27,7-.49,14.06a41.41,41.41,0,0,0,41.38,42.59H335.5l-13.09,24.84L297.91,957a20.7,20.7,0,0,0,18.31,30.34h34.64V1016a20.69,20.69,0,0,0,20.69,20.69h32.07A20.69,20.69,0,0,0,424.31,1016V987.3H579.22V1016a20.68,20.68,0,0,0,20.68,20.69H632A20.69,20.69,0,0,0,652.66,1016V987.3H687.3A20.7,20.7,0,0,0,705.61,957l-24.5-46.48L668,885.64h59.34a41.41,41.41,0,0,0,41.38-42.59c-.14-4.72-.31-9.4-.49-14.07H907a20.64,20.64,0,0,0,20.6-22.61Z"/><path class="cls-3" d="M440.86,999.4H408.79a20.69,20.69,0,0,1-20.69-20.69v-64h73.44v64A20.68,20.68,0,0,1,440.86,999.4Z"/><path class="cls-4" d="M388.1,914.67h73.44v57.14H388.1Z"/><path class="cls-3" d="M669.21,999.4H637.14a20.68,20.68,0,0,1-20.68-20.69v-64H689.9v64A20.69,20.69,0,0,1,669.21,999.4Z"/><path class="cls-4" d="M616.46,914.67H689.9v57.14H616.46Z"/><path class="cls-3" d="M724.54,950.05H353.46a20.69,20.69,0,0,1-18.31-30.33l24.5-46.48,21.6-41h315.5l21.6,41,24.5,46.48A20.69,20.69,0,0,1,724.54,950.05Z"/><path class="cls-4" d="M718.35,873.24H359.65l21.6-41h315.5Z"/><path class="cls-5" d="M944.19,791.74H732.3V559.3A233.79,233.79,0,0,1,964.8,769.13,20.64,20.64,0,0,1,944.19,791.74Z"/><path class="cls-5" d="M892.64,623H745.56a20.62,20.62,0,0,1-13.26-4.8V559.3A232.82,232.82,0,0,1,892.64,623Z"/><path class="cls-5" d="M113.2,769.12c12-117.85,111.49-209.82,232.51-209.82V791.75H133.81a20.65,20.65,0,0,1-20.61-22.63Z"/><path class="cls-6" d="M507.12,115.05C432.22,205.19,282.68,430.92,272,805.81a41.4,41.4,0,0,0,41.37,42.59H764.6A41.4,41.4,0,0,0,806,805.81C795.31,430.92,645.78,205.19,570.88,115.05a41.42,41.42,0,0,0-63.76,0Z"/><path class="cls-5" d="M612.36,169.76a112.31,112.31,0,0,1-146.72,0C480.82,147.89,495,129.69,507.12,115a41.43,41.43,0,0,1,63.76,0C583.05,129.69,597.18,147.89,612.36,169.76Z"/><path class="cls-7" d="M471.2,161.84V269.92a19.31,19.31,0,0,1-19.3,19.31H395.05A961.86,961.86,0,0,1,471.2,161.84Z"/><path class="cls-5" d="M597.67,847.56H480.33V650.44a10.34,10.34,0,0,1,10.34-10.34h96.66a10.34,10.34,0,0,1,10.34,10.34Z"/><rect class="cls-5" x="724.88" y="391.2" width="202.64" height="202.64" rx="20.69"/><path class="cls-5" d="M471.21,97.9V240.76a19.31,19.31,0,0,1-19.3,19.3H276.24a19.31,19.31,0,0,1-19.31-19.3V97.9a19.31,19.31,0,0,1,19.31-19.3H451.91A19.31,19.31,0,0,1,471.21,97.9Z"/><path class="cls-8" d="M342.2,139.26H307.63a10.35,10.35,0,0,1,0-20.69H342.2a10.35,10.35,0,0,1,0,20.69Z"/><path class="cls-5" d="M471.21,97.9V240.76a19.31,19.31,0,0,1-19.3,19.3H418a19.31,19.31,0,0,0,19.3-19.3V97.9A19.31,19.31,0,0,0,418,78.6h33.93A19.31,19.31,0,0,1,471.21,97.9Z"/><path class="cls-6" d="M471.21,135.31V240.76a19.31,19.31,0,0,1-19.3,19.3H276.24a19.31,19.31,0,0,1-19.31-19.3V208.38h36.42A20.6,20.6,0,0,0,308,202.32l27.48-27.47a20.77,20.77,0,0,1,14.65-6.07h79.07a20.92,20.92,0,0,0,8.11-1.65,20.49,20.49,0,0,0,6.52-4.41Z"/><path class="cls-6" d="M471.21,135.31V240.76a19.31,19.31,0,0,1-19.3,19.3H418a19.31,19.31,0,0,0,19.3-19.3V167.13a20.49,20.49,0,0,0,6.52-4.41Z"/><path class="cls-8" d="M587.33,802.74V667.86a10.35,10.35,0,0,1,20.69,0V802.74a10.35,10.35,0,1,1-20.69,0Z"/><circle class="cls-8" cx="448.63" cy="721.63" r="11.57"/><circle class="cls-8" cx="448.63" cy="686.65" r="11.57"/><circle class="cls-8" cx="448.63" cy="651.66" r="11.57"/><circle class="cls-6" cx="539" cy="382.7" r="93.4"/><path class="cls-9" d="M632.41,382.7a93.41,93.41,0,0,1-173.7,47.73A93.43,93.43,0,0,0,583.77,300.69a93.41,93.41,0,0,1,48.64,82Z"/><path class="cls-10" d="M286.73,368a30.2,30.2,0,1,1,21.36-8.83A30.12,30.12,0,0,1,286.73,368Zm0-39.72a9.53,9.53,0,1,0,6.73,2.79,9.46,9.46,0,0,0-6.73-2.79Z"/><path class="cls-11" d="M724.88,169.47a30.21,30.21,0,1,1,21.36-8.85h0A30,30,0,0,1,724.88,169.47Zm0-39.73A9.52,9.52,0,1,0,731.61,146h0a9.53,9.53,0,0,0-6.73-16.26Z"/><path class="cls-10" d="M896.46,327.12h-6.72V320.4a10.35,10.35,0,1,0-20.69,0v6.72h-6.72a10.35,10.35,0,1,0,0,20.69h6.72v6.72a10.35,10.35,0,1,0,20.69,0v-6.72h6.72a10.35,10.35,0,1,0,0-20.69Z"/><path class="cls-11" d="M246.47,392.21h-6.73v-6.72a10.35,10.35,0,1,0-20.69,0v6.72h-6.72a10.35,10.35,0,0,0,0,20.69h6.72v6.73a10.35,10.35,0,0,0,20.69,0V412.9h6.73a10.35,10.35,0,0,0,0-20.69Z"/><path class="cls-10" d="M289.07,890.78h-6.72v-6.72a10.35,10.35,0,0,0-20.69,0v6.72h-6.72a10.35,10.35,0,1,0,0,20.69h6.72v6.73a10.35,10.35,0,0,0,20.69,0v-6.73h6.72a10.35,10.35,0,1,0,0-20.69Z"/><path class="cls-8" d="M905,743.54H845.32a10.35,10.35,0,1,1,0-20.69H905a10.35,10.35,0,1,1,0,20.69Z"/><path class="cls-8" d="M232.68,743.54H173a10.35,10.35,0,1,1,0-20.69h59.69a10.35,10.35,0,1,1,0,20.69Z"/><path class="cls-6" d="M789.68,483.92A26.92,26.92,0,1,1,816.6,457,26.95,26.95,0,0,1,789.68,483.92Zm0-33.14a6.23,6.23,0,1,0,6.23,6.22A6.24,6.24,0,0,0,789.68,450.78Z"/><path class="cls-6" d="M860.71,555A26.92,26.92,0,1,1,887.62,528,26.95,26.95,0,0,1,860.71,555Zm0-33.15a6.23,6.23,0,1,0,6.23,6.23A6.24,6.24,0,0,0,860.71,521.8Z"/><path class="cls-6" d="M795.83,532.23a10.35,10.35,0,0,1-7.31-17.66l58.73-58.73a10.34,10.34,0,0,1,14.62,14.63L803.15,529.2A10.36,10.36,0,0,1,795.83,532.23Z"/><path class="cls-6" d="M521.74,599.31h-11a24.45,24.45,0,0,1-24.42-24.42v-34a24.45,24.45,0,0,1,24.42-24.41h11a24.44,24.44,0,0,1,24.42,24.41v34A24.44,24.44,0,0,1,521.74,599.31Zm-11-62.2a3.74,3.74,0,0,0-3.73,3.73v34a3.74,3.74,0,0,0,3.73,3.73h11a3.73,3.73,0,0,0,3.73-3.73v-34a3.74,3.74,0,0,0-3.73-3.73Z"/><path class="cls-6" d="M581.36,599.31A10.34,10.34,0,0,1,571,589V537.11h-.92a10.34,10.34,0,0,1,0-20.68h11.26a10.34,10.34,0,0,1,10.35,10.34V589A10.34,10.34,0,0,1,581.36,599.31Z"/><path class="cls-8" d="M975.09,768.08A242,242,0,0,0,887,604.18h19.87a31.07,31.07,0,0,0,31-31V411.89a31.07,31.07,0,0,0-31-31H745.57a30.59,30.59,0,0,0-10.3,1.8C685,251.32,622.7,161.22,578.83,108.44a51.75,51.75,0,0,0-79.66,0q-8.84,10.62-17.61,22V97.91a29.68,29.68,0,0,0-29.65-29.65H276.24a29.68,29.68,0,0,0-29.65,29.65V240.76a29.68,29.68,0,0,0,29.65,29.65H393.05C358.46,337,330.2,409.07,309,484.93q-9.66,34.5-17.36,70.1a244.11,244.11,0,0,0-188.69,213,30.83,30.83,0,0,0,7.8,23.76,31.18,31.18,0,0,0,23.1,10.26h128c0,1.15-.08,2.28-.12,3.43a51.75,51.75,0,0,0,51.72,53.22h42.2L326,914.9a31,31,0,0,0,27.46,45.5h24.28v18.3a31.08,31.08,0,0,0,31,31h32.07a31.07,31.07,0,0,0,31-31V960.4H606.11v18.3a31.07,31.07,0,0,0,31,31h32.07a31.07,31.07,0,0,0,31-31V960.4h24.29A31,31,0,0,0,752,914.9L722.4,858.74h42.2a51.75,51.75,0,0,0,51.72-53.22l-.12-3.43h128a31.18,31.18,0,0,0,23.09-10.26A30.79,30.79,0,0,0,975.09,768.08Zm-460-646.42a31.05,31.05,0,0,1,47.84,0c10.8,13,22.75,28.32,35.37,46A101.94,101.94,0,0,1,481.56,169v-3.81c11-15.3,22.25-29.93,33.52-43.49Zm-54.22,119.1a8.92,8.92,0,0,1-8.95,9H276.24a9,9,0,0,1-9-9v-22h26.07a31.13,31.13,0,0,0,21.94-9.1l27.45-27.45a10.36,10.36,0,0,1,7.35-3.05h79.08a31.19,31.19,0,0,0,12.18-2.49,30.6,30.6,0,0,0,9.76-6.6l9.76-9.76v80.48ZM276.24,89H451.91a9,9,0,0,1,9,9V131l-24.44,24.43a9.71,9.71,0,0,1-3.18,2.15,10.39,10.39,0,0,1-4.08.84H350.09a31,31,0,0,0-22,9.09L300.64,195a10.39,10.39,0,0,1-7.3,3H267.28V97.91a9,9,0,0,1,9-9ZM133.81,781.41a10.33,10.33,0,0,1-7.74-3.44,10,10,0,0,1-2.58-7.8A223.5,223.5,0,0,1,286.93,577.49,1363.84,1363.84,0,0,0,262.59,781.4H133.81ZM451.2,978.71a10.35,10.35,0,0,1-10.34,10.34H408.79a10.35,10.35,0,0,1-10.34-10.34V960.4H451.2Zm228.36,0a10.36,10.36,0,0,1-10.35,10.34H637.14a10.35,10.35,0,0,1-10.34-10.34V960.4h52.76Zm107.3-150.06a30.79,30.79,0,0,1-22.26,9.41H469.45a10.35,10.35,0,0,0,0,20.69H699l34.67,65.8a10.35,10.35,0,0,1-9.16,15.17H353.47a10.35,10.35,0,0,1-9.16-15.17L379,858.75h94.11a10.35,10.35,0,1,0,0-20.69H313.4a31.07,31.07,0,0,1-31-31.95c3.14-110.38,18.79-216.56,46.52-315.6,21.88-78.14,51.34-152.15,87.56-220.1h35.47a29.68,29.68,0,0,0,29.65-29.65V193.1A121.69,121.69,0,0,0,539,207.38a122.7,122.7,0,0,0,71.09-22.71C645.54,237,684.91,307.25,718.5,396.75a30.78,30.78,0,0,0-4,15.14v117.2a10.35,10.35,0,0,0,20.69,0V411.89a10.36,10.36,0,0,1,10.34-10.35H906.82a10.36,10.36,0,0,1,10.35,10.35V573.14a10.36,10.36,0,0,1-10.35,10.35H745.56a10.36,10.36,0,0,1-10.34-10.35v-43a10.35,10.35,0,1,0-20.69,0v43a31.07,31.07,0,0,0,31,31h29.53a1365.39,1365.39,0,0,1,20.54,201.93,30.79,30.79,0,0,1-8.77,22.54ZM951.93,778a10.33,10.33,0,0,1-7.74,3.44H815.42a1377.27,1377.27,0,0,0-19.31-177.23h55.53c58.42,37,95.9,97.44,102.87,166A10,10,0,0,1,951.93,778Z"/><path class="cls-8" d="M539,279A103.75,103.75,0,1,0,642.75,382.7,103.86,103.86,0,0,0,539,279Zm0,186.81a83.06,83.06,0,1,1,83.06-83.06A83.15,83.15,0,0,1,539,465.76Z"/><path class="cls-9" d="M481.24,393a10.34,10.34,0,0,1-10.35-10.34,73.83,73.83,0,0,1,21.77-52.55,10.34,10.34,0,0,1,14.63,14.63,53.28,53.28,0,0,0-15.71,37.92A10.34,10.34,0,0,1,481.24,393Z"/></svg>