<svg id="Layer_1" data-name="Layer 1" xmlns="http://www.w3.org/2000/svg" viewBox="0 0 1920 1080"><defs><style>.cls-1{fill:#191919;}.cls-2{opacity:0.1;}</style></defs><title>bg</title><rect class="cls-1" y="-0.14" width="1920" height="1080.14"/><g class="cls-2"><path d="M6.34,14.76H117.57c93.7,0,156.17,54.47,156.17,136.36S211.27,287.49,117.57,287.49H6.34ZM117.57,226.93c45.7,0,75.8-29.71,75.8-75.81s-30.1-75.8-75.8-75.8H84.05V226.93Z"/><path d="M306.89,14.76H516.77V78H384.6V123.7H509.54v52.19H384.6v48.37h136v63.23H306.89Z"/><path d="M535.44,14.76h82.28l59,213.69h3.81L738.85,14.76h83L741.14,287.49H615.81Z"/><path d="M847.42,14.76H1057.3V78H925.13V123.7h124.94v52.19H925.13v48.37h136v63.23H847.42Z"/><path d="M1093.87,14.76h80.38V218.93H1292v68.56H1093.87Z"/><path d="M1301.87,151.12c0-86.85,61.7-141.7,153.13-141.7,91,0,152.74,54.85,152.74,141.7S1546,293.21,1455,293.21C1363.57,293.21,1301.87,238,1301.87,151.12Zm225.5,0c0-45.71-29.33-76.18-72.37-76.18s-72.76,30.47-72.76,76.18c0,46.1,29.71,76.19,72.76,76.19S1527.37,197.22,1527.37,151.12Z"/><path d="M1641.27,14.76h126.46c71.62,0,116.18,38.09,116.18,96.75S1839,208.26,1767,208.26h-45.71v79.23h-80Zm117.32,135.6c27.05,0,45-15.24,45-38.85s-17.9-38.86-45-38.86h-37.33v77.71Z"/><path d="M6.34,757H125.55C226,757,292.93,815.38,292.93,903.15s-67,146.16-167.38,146.16H6.34ZM125.55,984.4c49,0,81.24-31.85,81.24-81.25s-32.26-81.24-81.24-81.24H89.62V984.4Z"/><path d="M328.45,757H475.83c71.44,0,118.8,40,118.8,99.62,0,47.76-31,81.24-73.49,89l-3.26.82L604,1049.31H508.08L435.41,953H414.6v96.35H328.45ZM460.72,897c27.36,0,47.77-14.69,47.77-39.19,0-24.09-20.41-38.78-47.77-38.78H414.6v78Z"/><path d="M631.37,757h225v67.77H714.66v49h133.9v55.93H714.66v51.85H860.4v67.77h-229Z"/><path d="M968.19,757h126.55l91.45,292.31H1097.6l-13.88-44.5H978.8l-13.88,44.5h-88.6ZM1067,943.57,1033.5,830.08h-4.07L996,943.57Z"/><path d="M1213.55,757h113.9L1394,946.43h4.08L1463,757h116v292.31h-83.29V873.76h-4.08l-62.06,175.55H1363l-62.06-175.14h-4.07v175.14h-83.29Z"/><path d="M1615.69,953h80.84c.4,24.5,20.41,40.42,55.52,40.42,27.76,0,45.72-10.21,45.72-28.17,0-21.23-24.09-26.13-53.89-30.21-50.21-6.94-126.15-13.06-126.15-88.19,0-58,49.81-95.52,127-95.52,77.56,0,129.42,41.64,129.42,102.06h-78c0-25.72-19.19-40.42-48.58-40.42-27.36,0-43.68,11.43-43.68,27.76,0,22,29,25.72,62.87,30.62,49.8,7.35,117.16,18,117.16,88.59,0,58-53.48,95.53-135.13,95.53C1668.77,1055.43,1615.69,1013.38,1615.69,953Z"/><path d="M161.29,591.05,6.34,309.93H142.61l80.9,171.53h6.23l75.92-171.53H443.81L292.59,591.05V736.38H161.29Z"/><path d="M427,523.16c0-135.8,100.81-221.57,250.17-221.57,148.73,0,249.54,85.77,249.54,221.57S825.94,745.32,677.21,745.32C527.85,745.32,427,659,427,523.16Zm368.4,0c0-71.48-47.92-119.13-118.23-119.13S558.35,451.68,558.35,523.16c0,72.06,48.53,119.12,118.86,119.12S795.44,595.22,795.44,523.16Z"/><path d="M977.82,561.28V309.93h131.3V557.1c0,51.82,30.49,85.18,77.79,85.18,46.67,0,77.78-33.95,77.78-85.18V309.93H1396V561.28c0,112.57-84.64,184-209.09,184S977.82,673.85,977.82,561.28Z"/><path d="M1463.86,309.93h224.65c108.9,0,181.09,58.37,181.09,145.32,0,69.69-47.3,118.53-112,129.85l-5,1.19,131.3,150.09H1737.67L1626.9,595.82h-31.74V736.38h-131.3Zm201.62,204.29c41.7,0,72.82-21.44,72.82-57.18,0-35.14-31.12-56.58-72.82-56.58h-70.32V514.22Z"/></g></svg>