<svg id="Layer_1" data-name="Layer 1" xmlns="http://www.w3.org/2000/svg" xmlns:xlink="http://www.w3.org/1999/xlink" viewBox="0 0 1078 1078"><defs><style>.cls-1{fill:url(#linear-gradient);}.cls-12,.cls-2{fill:#ec5d10;}.cls-2{opacity:0.1;}.cls-3{fill:#f8eee4;}.cls-4{fill:#f06a00;}.cls-5{fill:#e0dcda;}.cls-6,.cls-9{fill:#f27b3b;}.cls-7{fill:#cecae0;}.cls-8{fill:#e5ddd6;}.cls-10,.cls-9{opacity:0.5;}.cls-11{fill:#d66636;}.cls-13{fill:#e8b28e;}</style><linearGradient id="linear-gradient" x1="79.27" y1="189.88" x2="2061.38" y2="1800.76" gradientUnits="userSpaceOnUse"><stop offset="0" stop-color="#ec5d10"/><stop offset="1" stop-color="#c41000"/></linearGradient></defs><title>Design_ServiceIcon</title><path class="cls-1" d="M1042,611.37A237.35,237.35,0,0,0,901.21,465.89a86.16,86.16,0,0,1-55.58-79.44c0-.77,0-1.55,0-2.32C842.55,254,733.79,149.74,603.65,152a237.4,237.4,0,0,0-187.18,96.55C379.83,298.09,322.8,329.05,261.16,329c-1.81,0-3.62,0-5.44.06C131,331.8,24.89,438.84,23.23,563.61,21.46,696.45,128.61,804.69,261,804.69c102.65,0,190.1-65,223.42-156.14,8.71-23.84,34.55-36.62,59-29.77l.91.26a48.54,48.54,0,0,1,35.36,50.61,236.8,236.8,0,0,0,11.69,94.28C632.76,887.11,767.08,954.71,890.6,914.4c126.35-41.23,194.19-177.67,151.35-303Z"/><path class="cls-2" d="M947.23,182.81H201.89A30.22,30.22,0,0,0,171.68,213V561.72l-66,117.92a40.31,40.31,0,0,0,7.67,49.13l58.33,54.44v2.42a30.22,30.22,0,0,0,30.21,30.22H947.23a30.23,30.23,0,0,0,30.22-30.22V213a30.23,30.23,0,0,0-30.22-30.22Z"/><path class="cls-3" d="M977.45,255.33v572.6a30.23,30.23,0,0,1-30.22,30.22H201.89a30.22,30.22,0,0,1-30.21-30.22V255.33a30.22,30.22,0,0,1,30.21-30.22H947.23a30.23,30.23,0,0,1,30.22,30.22Z"/><path class="cls-4" d="M709.58,779.07H382.78a6,6,0,0,1-6-6V459.52a6,6,0,0,1,6-6H709.59a6,6,0,0,1,6,6V773A6.05,6.05,0,0,1,709.58,779.07Z"/><path class="cls-5" d="M977.45,417.16V255.33a30.22,30.22,0,0,0-30.22-30.21H201.89a30.22,30.22,0,0,0-30.21,30.21V417.16Z"/><path class="cls-6" d="M977.45,322.15V255.33a30.22,30.22,0,0,0-30.22-30.22H201.89a30.21,30.21,0,0,0-30.21,30.22v66.82Z"/><path class="cls-4" d="M476.44,168.32a10.07,10.07,0,0,1-7.12-2.95l-22.15-22.15a10.07,10.07,0,0,1,0-14.24l22.15-22.15a10.08,10.08,0,0,1,14.25,0L505.72,129a10.07,10.07,0,0,1,0,14.24l-22.15,22.15A10.07,10.07,0,0,1,476.44,168.32Zm-7.9-32.22,7.9,7.9,7.91-7.9-7.91-7.9Z"/><path class="cls-4" d="M781.68,1008.45a10.07,10.07,0,0,1-10.07-10.07,12.13,12.13,0,0,0-12.12-12.12,10.08,10.08,0,0,1,0-20.15A12.13,12.13,0,0,0,771.61,954a10.08,10.08,0,1,1,20.15,0,12.12,12.12,0,0,0,12.11,12.11,10.08,10.08,0,1,1,0,20.15,12.13,12.13,0,0,0-12.11,12.12A10.07,10.07,0,0,1,781.68,1008.45Z"/><path class="cls-7" d="M919.51,789.61H766.41a6,6,0,0,1-6-6V404.86a6,6,0,0,1,6-6.05h153.1a6,6,0,0,1,6,6.05V783.57a6,6,0,0,1-6,6Z"/><path class="cls-8" d="M919.51,789.61H766.41a6,6,0,0,1-6-6V404.86a6,6,0,0,1,6-6.05h153.1a6,6,0,0,1,6,6.05V783.57a6,6,0,0,1-6,6Z"/><path class="cls-9" d="M925.55,444.12H760.37V404.86a6,6,0,0,1,6-6.05h153.1a6,6,0,0,1,6,6.05v39.26Z"/><path class="cls-9" d="M760.37,562.13H925.55v45.3H760.37Z"/><g class="cls-10"><path class="cls-6" d="M827,649.13h-41a6,6,0,0,1-6-6v-5a6,6,0,0,1,6-6h41a6,6,0,0,1,6,6v5A6,6,0,0,1,827,649.13Z"/><path class="cls-6" d="M899.87,649.13h-41a6,6,0,0,1-6-6v-5a6,6,0,0,1,6-6h41a6,6,0,0,1,6,6v5A6,6,0,0,1,899.87,649.13Z"/><path class="cls-6" d="M827,677.84h-41a6.05,6.05,0,0,1-6-6.05v-5a6,6,0,0,1,6-6h41a6,6,0,0,1,6,6v5A6.05,6.05,0,0,1,827,677.84Z"/><path class="cls-6" d="M899.87,677.84h-41a6,6,0,0,1-6-6.05v-5a6,6,0,0,1,6-6h41a6,6,0,0,1,6,6v5A6,6,0,0,1,899.87,677.84Z"/><path class="cls-6" d="M827,706.54h-41a6,6,0,0,1-6-6v-5a6,6,0,0,1,6-6h41a6,6,0,0,1,6,6v5A6,6,0,0,1,827,706.54Z"/><path class="cls-6" d="M899.87,706.54h-41a6,6,0,0,1-6-6v-5a6,6,0,0,1,6-6h41a6,6,0,0,1,6,6v5A6,6,0,0,1,899.87,706.54Z"/></g><path class="cls-7" d="M341.05,562.87v-158a6,6,0,0,0-6-6.05H254.43a6,6,0,0,0-6,6.05v158a6,6,0,0,0,6,6H335A6,6,0,0,0,341.05,562.87Z"/><path class="cls-8" d="M341.05,562.87v-158a6,6,0,0,0-6-6.05H254.43a6,6,0,0,0-6,6.05v158a6,6,0,0,0,6,6H335A6,6,0,0,0,341.05,562.87Z"/><path class="cls-9" d="M341.05,444.12H248.39V404.86a6,6,0,0,1,6-6.05H335a6,6,0,0,1,6,6.05v39.26Z"/><path class="cls-6" d="M302.11,927.86H194.67a20.14,20.14,0,0,1-20.14-20.14V863.4H322.25v44.32A20.14,20.14,0,0,1,302.11,927.86Z"/><path class="cls-11" d="M174.53,863.4H322.25v40.28H174.53Z"/><path class="cls-3" d="M194.27,846.61H302.5l80.93-75.53A40.29,40.29,0,0,0,391.09,722L261.16,489.77a14.64,14.64,0,0,0-25.54,0L105.68,722a40.31,40.31,0,0,0,7.67,49.13Z"/><circle class="cls-6" cx="248.39" cy="727.76" r="40.23"/><path class="cls-6" d="M330.52,879.91H166.26a20.15,20.15,0,0,1-20.15-20.14V848.16A20.15,20.15,0,0,1,166.26,828H330.52a20.15,20.15,0,0,1,20.15,20.15v11.61A20.15,20.15,0,0,1,330.52,879.91Z"/><path class="cls-12" d="M258.46,273.78v-.29a10.08,10.08,0,1,0-20.15,0v.29a10.08,10.08,0,0,0,20.15,0Z"/><path class="cls-12" d="M297.39,273.78v-.29a10.08,10.08,0,1,0-20.15,0v.29a10.08,10.08,0,0,0,20.15,0Z"/><path class="cls-12" d="M336.32,273.78v-.29a10.08,10.08,0,1,0-20.15,0v.29a10.08,10.08,0,0,0,20.15,0Z"/><path class="cls-12" d="M947.23,215H201.89a40.34,40.34,0,0,0-40.29,40.29v78.93a10.08,10.08,0,0,0,20.15,0V255.33a20.16,20.16,0,0,1,20.14-20.14H947.23a20.16,20.16,0,0,1,20.14,20.14v56.75H171.68a10.07,10.07,0,0,0-10.08,10.07V601.4L96.89,717a50.26,50.26,0,0,0,9.59,61.41l45.94,42.88A30.22,30.22,0,0,0,136,848.15v11.61a30.23,30.23,0,0,0,28.41,30.13v17.83a30.25,30.25,0,0,0,30.22,30.21H302.11a30.25,30.25,0,0,0,30.22-30.21V889.89a30.23,30.23,0,0,0,28.41-30.13V848.15a30.22,30.22,0,0,0-16.38-26.83l45.94-42.88A50.24,50.24,0,0,0,399.88,717L270,484.85a24.71,24.71,0,0,0-43.12,0L181.75,565.4V332.23H967.37v495.7a20.16,20.16,0,0,1-20.14,20.14H350.67a10.08,10.08,0,1,0,0,20.15H947.23a40.34,40.34,0,0,0,40.29-40.29V255.33A40.34,40.34,0,0,0,947.23,215ZM302.11,917.79H194.67a10.08,10.08,0,0,1-10.07-10.07V890H312.18v17.74A10.08,10.08,0,0,1,302.11,917.79Zm38.48-58a10.07,10.07,0,0,1-10.07,10.07H166.26a10.07,10.07,0,0,1-10.07-10.07V848.15a10.08,10.08,0,0,1,10.07-10.07H330.52a10.08,10.08,0,0,1,10.07,10.07v11.61Zm-92.2-162.15a30.15,30.15,0,1,1-30.15,30.15A30.19,30.19,0,0,1,248.39,697.61Zm-10.08-192V678.47a50.31,50.31,0,1,0,20.15,0V505.58L382.3,726.87a30.14,30.14,0,0,1-5.75,36.84L319,817.4c-.18.17-.3.36-.47.54H178.21c-.16-.18-.29-.37-.46-.54l-57.52-53.69a30.15,30.15,0,0,1-5.76-36.84Z"/><path class="cls-13" d="M713.47,919.9l-22.15-22.15a10.08,10.08,0,0,0-14.25,0L654.93,919.9a10.07,10.07,0,0,0,0,14.25l22.14,22.14a10.06,10.06,0,0,0,14.25,0l22.15-22.14A10.09,10.09,0,0,0,713.47,919.9Zm-29.27,15-7.91-7.9,7.91-7.9,7.9,7.9Z"/><path class="cls-13" d="M546.18,111.89A12.13,12.13,0,0,1,558.3,124a10.08,10.08,0,1,0,20.15,0,12.12,12.12,0,0,1,12.11-12.11,10.08,10.08,0,1,0,0-20.15,12.13,12.13,0,0,1-12.11-12.12,10.08,10.08,0,0,0-20.15,0,12.14,12.14,0,0,1-12.12,12.12,10.08,10.08,0,0,0,0,20.15Z"/><path class="cls-3" d="M683,696.47V515.87a20.17,20.17,0,0,0-20.15-20.15H438.58a20.17,20.17,0,0,0-20.15,20.15v180.6a20.17,20.17,0,0,0,20.15,20.15H662.85A20.17,20.17,0,0,0,683,696.47Zm-69.49,0V587.86h49.34V696.47Zm49.34-180.6v51.84H438.58V515.87Zm-224.27,72H593.36V696.47H438.58Z"/><path class="cls-9" d="M256.51,381.8h39a8.13,8.13,0,0,0,0-16.25h-39a8.13,8.13,0,0,0,0,16.25Z"/><path class="cls-9" d="M349.18,381.8h39a8.13,8.13,0,0,0,0-16.25h-39a8.13,8.13,0,1,0,0,16.25Z"/><path class="cls-9" d="M441.84,381.8h39a8.13,8.13,0,1,0,0-16.25h-39a8.13,8.13,0,0,0,0,16.25Z"/><path class="cls-9" d="M534.5,381.8h39a8.13,8.13,0,0,0,0-16.25h-39a8.13,8.13,0,0,0,0,16.25Z"/><path class="cls-9" d="M627.17,381.8h39a8.13,8.13,0,1,0,0-16.25h-39a8.13,8.13,0,1,0,0,16.25Z"/></svg>