<svg id="Layer_1" data-name="Layer 1" xmlns="http://www.w3.org/2000/svg" viewBox="0 0 424 424"><defs><style>.cls-1{fill:#efefef;}</style></defs><title>design</title><path class="cls-1" d="M118.36,71.22c-51.23,25.7-92.95,46.83-92.77,47,1,1,185.44,92.85,186.41,92.85s185.44-91.88,186.5-92.85c.26-.26-186.15-93.82-186.68-93.64C211.65,24.57,169.67,45.61,118.36,71.22Z"/><path class="cls-1" d="M50.32,199c-13.73,6.88-24.91,12.69-24.91,13s42,21.48,93.3,47.09L212,305.69,305.29,259c51.31-25.61,93.3-46.82,93.3-47.09s-11.36-6.16-25.35-13.11L348,186.25l-68,34L212,254.2l-67.77-33.89c-37.23-18.65-68-33.88-68.38-33.79S64,192.15,50.32,199Z"/><path class="cls-1" d="M50.5,293C37,299.78,25.76,305.5,25.59,305.68s41.63,21.39,93,47L212,399.42l93.38-46.73c51.4-25.61,93.21-46.83,93-47-.88-.88-49.9-25.09-50.78-25.09-.53,0-31.24,15.14-68.3,33.62L212,347.93l-67.33-33.71C107.61,295.74,76.81,280.6,76.2,280.6S64.05,286.24,50.5,293Z"/></svg>