<svg id="Layer_1" data-name="Layer 1" xmlns="http://www.w3.org/2000/svg" viewBox="0 0 424 424"><defs><style>.cls-1{fill:#efefef;}.cls-2{fill:#e5e5e5;}</style></defs><title>development</title><path class="cls-1" d="M377,39H47A33,33,0,0,0,14,72v51.09H410V72A33,33,0,0,0,377,39ZM51.54,103.38A22.16,22.16,0,1,1,73.69,81.23,22.18,22.18,0,0,1,51.54,103.38Zm68.06.21a22.15,22.15,0,1,1,22.15-22.15A22.18,22.18,0,0,1,119.6,103.59Zm68.06.21a22.15,22.15,0,1,1,22.15-22.15A22.17,22.17,0,0,1,187.66,103.8Z"/><path class="cls-2" d="M167.29,297.13a7,7,0,0,1-4.53-1.67l-45.3-38.57a7,7,0,0,1,0-10.66l45.3-38.57a7,7,0,0,1,9.07,10.66l-39,33.24,39,33.24a7,7,0,0,1-4.54,12.33Z"/><path class="cls-2" d="M256.71,297.13a7,7,0,0,1-4.54-12.33l39-33.24-39-33.24a7,7,0,0,1,9.07-10.66l45.3,38.57a7,7,0,0,1,0,10.66l-45.3,38.57A7,7,0,0,1,256.71,297.13Z"/><path class="cls-2" d="M196,326.06a7.21,7.21,0,0,1-1.45-.15,7,7,0,0,1-5.4-8.29l28.23-134a7,7,0,0,1,13.7,2.89l-28.24,134A7,7,0,0,1,196,326.06Z"/><path class="cls-1" d="M377,25H47A47.06,47.06,0,0,0,0,72V352.09a47.06,47.06,0,0,0,47,47H377a47.06,47.06,0,0,0,47-47V72A47.06,47.06,0,0,0,377,25Zm33,327.09a33,33,0,0,1-33,33H47a33,33,0,0,1-33-33V72A33,33,0,0,1,47,39H377a33,33,0,0,1,33,33Z"/><path class="cls-1" d="M424,130.09a7,7,0,0,1-7,7H7a7,7,0,0,1,0-14H417A7,7,0,0,1,424,130.09Z"/><circle class="cls-2" cx="119.6" cy="81.44" r="22.15"/><path class="cls-2" d="M73.69,81.23A22.16,22.16,0,1,1,51.54,59.07,22.18,22.18,0,0,1,73.69,81.23Z"/><circle class="cls-2" cx="187.66" cy="81.65" r="22.15" transform="translate(77.01 253.81) rotate(-80.78)"/></svg>