<svg id="Layer_1" data-name="Layer 1" xmlns="http://www.w3.org/2000/svg" xmlns:xlink="http://www.w3.org/1999/xlink" viewBox="0 0 1078 1078"><defs><style>.cls-1{fill:url(#linear-gradient);}.cls-17,.cls-2{fill:#ec5d10;}.cls-2{opacity:0.1;}.cls-3{fill:#cbb0a0;}.cls-4{fill:#b29586;}.cls-5{fill:#f8eee4;}.cls-6{fill:#ffd5b8;}.cls-7{fill:#ffa983;}.cls-8{fill:#cca1ff;}.cls-9{fill:#f27b3b;}.cls-10{fill:#edd0b9;}.cls-11{fill:#afabc6;}.cls-12{fill:#fc8151;}.cls-13{fill:#fdd250;}.cls-14{fill:#f5f4f9;}.cls-15{fill:#f06a00;}.cls-16{fill:#e8b28e;}</style><linearGradient id="linear-gradient" x1="107.06" y1="177.92" x2="2458.42" y2="2251.72" gradientUnits="userSpaceOnUse"><stop offset="0" stop-color="#ec5d10"/><stop offset="1" stop-color="#c41000"/></linearGradient></defs><title>QATesting_ServiceIcon</title><path class="cls-1" d="M1057.14,600.71a244.52,244.52,0,0,0-145-149.87A88.75,88.75,0,0,1,854.89,369c0-.79,0-1.59,0-2.39-3.13-134-115.17-241.46-249.23-239.16a244.64,244.64,0,0,0-192.84,99.46c-37.75,51.06-96.5,83-160,82.92-1.87,0-3.73,0-5.61.06C118.65,312.71,9.37,423,7.66,551.51c-1.83,136.85,108.56,248.36,245,248.36,105.75,0,195.84-67,230.16-160.86,9-24.56,35.6-37.72,60.78-30.66l.95.26A50,50,0,0,1,581,660.75a244.15,244.15,0,0,0,12,97.13c42.59,126.9,181,196.54,308.22,155,130.16-42.48,200-183,155.92-312.18Z"/><path class="cls-2" d="M1013.91,694.58,954.14,594.11V209.56A31.15,31.15,0,0,0,923,178.43H598.11a65.65,65.65,0,0,0-36-33.2c9.63-5.32,18.11-13.92,24.36-25.1A10.38,10.38,0,0,0,568.39,110c-7.32,13.11-18,20.63-29.39,20.63s-22.07-7.52-29.39-20.63a10.38,10.38,0,0,0-18.12,10.12c6.25,11.18,14.73,19.78,24.36,25.1a65.58,65.58,0,0,0-36,33.2H155a31.15,31.15,0,0,0-31.13,31.13V594.11L64.1,694.58a10.23,10.23,0,0,0,8.79,15.47h51v27.26A31.14,31.14,0,0,0,155,768.44H923a31.13,31.13,0,0,0,31.13-31.13V710.05h51a10.24,10.24,0,0,0,8.8-15.47Z"/><path class="cls-3" d="M656.71,963H421.28l47.09-186.62H609.63Z"/><path class="cls-4" d="M626,841.31H452l16.4-65H609.63Z"/><path class="cls-5" d="M954.14,253.15V780.9A31.14,31.14,0,0,1,923,812H155a31.14,31.14,0,0,1-31.13-31.13V253.15A31.14,31.14,0,0,1,155,222H923A31.14,31.14,0,0,1,954.14,253.15Z"/><path class="cls-6" d="M775,452.49l-23.25-23.25a20.76,20.76,0,0,0-14.68-6.08H688.61a151.28,151.28,0,0,0-13.77-41.31l27.75-27.74h24.28a20.76,20.76,0,0,0,0-41.52H694a20.76,20.76,0,0,0-14.68,6.08l-28.49,28.49a152,152,0,0,0-223.65,0l-28.48-28.49A20.8,20.8,0,0,0,384,312.59H351.12a20.76,20.76,0,0,0,0,41.52h24.29l27.75,27.74a150.61,150.61,0,0,0-13.77,41.31H340.9a20.76,20.76,0,0,0-14.67,6.08L303,452.49a20.76,20.76,0,0,0,29.36,29.36l17.17-17.18h38.16A151,151,0,0,0,408.37,528l-.27.24-32.69,32.69H351.12a20.76,20.76,0,0,0,0,41.52H384a20.76,20.76,0,0,0,14.68-6.08l35.8-35.8a151.91,151.91,0,0,0,209,0l35.8,35.8A20.76,20.76,0,0,0,694,602.4h32.89a20.76,20.76,0,1,0,0-41.52H702.59L669.9,528.19l-.26-.24a151.17,151.17,0,0,0,20.71-63.28H728.5l17.17,17.18A20.76,20.76,0,1,0,775,452.49Z"/><path class="cls-7" d="M310.53,394.6H871.14a10.65,10.65,0,0,0,0-21.3H310.53a10.65,10.65,0,1,0,0,21.3Z"/><path class="cls-8" d="M310.53,480.29h23.35l-1.56,1.55a20.79,20.79,0,0,1-28.5.83,10.6,10.6,0,0,1,6.71-2.38Z"/><path class="cls-8" d="M776.44,480.29a20.76,20.76,0,0,1-30.76,1.55l-1.56-1.55Z"/><path class="cls-8" d="M334.11,587.27H401.5l-2.82,2.82A20.7,20.7,0,0,1,384,596.17H351.13a20.69,20.69,0,0,1-17-8.9Z"/><path class="cls-8" d="M488.25,587.27h101.5a152.54,152.54,0,0,1-101.5,0Z"/><path class="cls-8" d="M743.89,587.27a20.69,20.69,0,0,1-17,8.9H694a20.7,20.7,0,0,1-14.67-6.08l-2.82-2.82Z"/><path class="cls-7" d="M206.85,394.6h51.08a10.65,10.65,0,0,0,0-21.3H206.85a10.65,10.65,0,0,0,0,21.3Z"/><path class="cls-7" d="M206.85,436.82h664.3a10.65,10.65,0,0,0,0-21.29H206.85a10.65,10.65,0,0,0,0,21.29Z"/><path class="cls-7" d="M881.78,490.93a10.63,10.63,0,0,1-10.62,10.65H310.53a10.65,10.65,0,1,1,0-21.29H871.16a10.63,10.63,0,0,1,10.62,10.64Z"/><path class="cls-7" d="M206.85,501.57h51.08a10.65,10.65,0,1,0,0-21.29H206.85a10.65,10.65,0,0,0,0,21.29Z"/><path class="cls-7" d="M206.85,543.8h664.3a10.65,10.65,0,0,0,0-21.29H206.85a10.65,10.65,0,0,0,0,21.29Z"/><path class="cls-7" d="M881.78,597.92a10.61,10.61,0,0,1-10.62,10.62H310.53a10.64,10.64,0,1,1,0-21.27H871.16A10.62,10.62,0,0,1,881.78,597.92Z"/><path class="cls-7" d="M206.85,608.55h51.08a10.65,10.65,0,1,0,0-21.29H206.85a10.65,10.65,0,0,0,0,21.29Z"/><path class="cls-7" d="M206.85,650.78h664.3a10.65,10.65,0,0,0,0-21.29H206.85a10.65,10.65,0,0,0,0,21.29Z"/><path class="cls-9" d="M954.14,322V253.15A31.13,31.13,0,0,0,923,222H155a31.13,31.13,0,0,0-31.13,31.13V322Z"/><path class="cls-10" d="M954.14,707.43v73.46A31.13,31.13,0,0,1,923,812H155a31.13,31.13,0,0,1-31.13-31.13V707.43Z"/><path class="cls-11" d="M954.14,707.43v71.11H764.71a10.23,10.23,0,0,1-8.8-15.46L789,707.43Z"/><path class="cls-11" d="M313.29,778.54H123.86V707.43H289l33.11,55.65a10.23,10.23,0,0,1-8.8,15.46Z"/><path class="cls-12" d="M760.35,463a20.71,20.71,0,0,1-14.68-6.08L728.5,439.76H682.27a20.76,20.76,0,1,1,0-41.51H737.1a20.76,20.76,0,0,1,14.67,6.08L775,427.58A20.76,20.76,0,0,1,760.35,463Z"/><path class="cls-12" d="M317.65,463a20.71,20.71,0,0,0,14.68-6.08l17.17-17.18h46.24a20.76,20.76,0,0,0,0-41.51H340.91a20.76,20.76,0,0,0-14.68,6.08L303,427.58A20.76,20.76,0,0,0,317.65,463Z"/><path class="cls-12" d="M741.55,323.12a20.65,20.65,0,0,1-14.67,6.08H702.59L669.9,361.89a20.76,20.76,0,0,1-29.36-29.36l38.77-38.77A20.8,20.8,0,0,1,694,287.68h32.89a20.76,20.76,0,0,1,14.67,35.44Z"/><path class="cls-12" d="M336.45,323.12a20.65,20.65,0,0,0,14.67,6.08h24.29l32.69,32.69a20.76,20.76,0,0,0,29.36-29.36l-38.77-38.77A20.8,20.8,0,0,0,384,287.68H351.12a20.76,20.76,0,0,0-14.67,35.44Z"/><path class="cls-12" d="M336.45,542.05A20.69,20.69,0,0,1,351.12,536h24.29l32.69-32.69a20.76,20.76,0,0,1,29.36,29.36l-38.77,38.77A20.8,20.8,0,0,1,384,577.49H351.12a20.76,20.76,0,0,1-14.67-35.44Z"/><path class="cls-12" d="M741.55,542.05A20.69,20.69,0,0,0,726.88,536H702.59L669.9,503.28a20.76,20.76,0,0,0-29.36,29.36l38.77,38.77A20.8,20.8,0,0,0,694,577.49h32.89a20.76,20.76,0,0,0,14.67-35.44Z"/><circle class="cls-12" cx="539" cy="249.99" r="65.38"/><circle class="cls-13" cx="539" cy="425.24" r="152.05"/><path class="cls-13" d="M764.71,753.64h240.4a10.24,10.24,0,0,0,8.8-15.47L893.71,536.11a10.24,10.24,0,0,0-17.6,0L755.91,738.17a10.24,10.24,0,0,0,8.8,15.47Z"/><path class="cls-14" d="M884.91,685.49a10.38,10.38,0,0,1-10.38-10.38v-61a10.38,10.38,0,0,1,20.76,0v61A10.38,10.38,0,0,1,884.91,685.49Z"/><path class="cls-14" d="M884.91,718.38A10.38,10.38,0,0,1,874.53,708v-.24a10.38,10.38,0,1,1,20.76,0V708A10.38,10.38,0,0,1,884.91,718.38Z"/><path class="cls-13" d="M72.89,753.64h240.4a10.24,10.24,0,0,0,8.8-15.47L201.89,536.11a10.24,10.24,0,0,0-17.6,0L64.1,738.17A10.23,10.23,0,0,0,72.89,753.64Z"/><path class="cls-14" d="M193.09,685.49a10.38,10.38,0,0,1-10.38-10.38v-61a10.38,10.38,0,0,1,20.76,0v61A10.38,10.38,0,0,1,193.09,685.49Z"/><path class="cls-14" d="M193.09,718.38A10.38,10.38,0,0,1,182.71,708v-.24a10.38,10.38,0,0,1,20.76,0V708A10.38,10.38,0,0,1,193.09,718.38Z"/><path class="cls-15" d="M341.67,925a10.35,10.35,0,0,1-7.34-3l-22.82-22.82a10.39,10.39,0,0,1,0-14.68l22.82-22.82a10.39,10.39,0,0,1,14.68,0l22.82,22.82a10.37,10.37,0,0,1,0,14.68L349,921.91A10.33,10.33,0,0,1,341.67,925Zm-8.14-33.2,8.14,8.14,8.15-8.14-8.15-8.14Z"/><path class="cls-16" d="M243,958.32a10.34,10.34,0,0,1-7.34-3l-22.82-22.82a10.37,10.37,0,0,1,0-14.68L235.68,895a10.39,10.39,0,0,1,14.68,0l22.82,22.82a10.38,10.38,0,0,1,0,14.68l-22.82,22.82A10.38,10.38,0,0,1,243,958.32Zm-8.15-33.2,8.15,8.15,8.14-8.15L243,917Z"/><path class="cls-17" d="M202.91,282.54a10.37,10.37,0,0,0,10.37-10.38v-.3a10.38,10.38,0,1,0-20.75,0v.3A10.38,10.38,0,0,0,202.91,282.54Z"/><path class="cls-17" d="M243,282.54a10.38,10.38,0,0,0,10.38-10.38v-.3a10.38,10.38,0,0,0-20.76,0v.3A10.38,10.38,0,0,0,243,282.54Z"/><path class="cls-17" d="M283.13,282.54a10.38,10.38,0,0,0,10.38-10.38v-.3a10.38,10.38,0,0,0-20.76,0v.3A10.38,10.38,0,0,0,283.13,282.54Z"/><path class="cls-17" d="M1022.83,732.86l-58.32-98s0,0,0-.06V253.15A41.56,41.56,0,0,0,923,211.64H606.36a10.38,10.38,0,1,0,0,20.75H923a20.78,20.78,0,0,1,20.75,20.76v58.48H757.84a30.69,30.69,0,0,0,.17-3.19,31.18,31.18,0,0,0-31.14-31.14H694a31,31,0,0,0-22,9.13l-21.16,21.16a163.23,163.23,0,0,0-41.72-28.86A75,75,0,0,0,614.76,250a75.84,75.84,0,0,0-42.71-68.16,68.45,68.45,0,0,0,14.46-18.11,10.38,10.38,0,1,0-18.12-10.13c-7.32,13.11-18,20.63-29.39,20.63s-22.07-7.52-29.39-20.63a10.38,10.38,0,1,0-18.13,10.13,68.62,68.62,0,0,0,14.46,18.11,76.2,76.2,0,0,0-32.24,29.81H155a41.56,41.56,0,0,0-41.51,41.51V633.57a9.58,9.58,0,0,0,.11,1.09l-58.41,98.2A20.61,20.61,0,0,0,72.89,764h40.59v16.87A41.57,41.57,0,0,0,155,822.41H446L413.21,952.56H381.39a10.38,10.38,0,1,0,0,20.75H696.62a10.38,10.38,0,1,0,0-20.75H664.8L632,822.41H923a41.56,41.56,0,0,0,41.51-41.52V764h40.59a20.62,20.62,0,0,0,17.72-31.16ZM686.65,301.1a10.32,10.32,0,0,1,7.34-3h32.88a10.38,10.38,0,0,1,0,20.76H702.59a10.38,10.38,0,0,0-7.34,3L677.16,340a163.28,163.28,0,0,0-12.22-17.14ZM397.33,425.24a140.89,140.89,0,0,1,24.09-78.94H528.05V566.44c-73-5.61-130.72-66.78-130.72-141.2ZM419.9,535.52l-28.55,28.55a10.32,10.32,0,0,1-7.34,3H351.13a10.38,10.38,0,1,1,0-20.76h24.28a10.38,10.38,0,0,0,7.34-3l24-24a162.66,162.66,0,0,0,13.17,16.19ZM376.68,429.39H349.5a10.38,10.38,0,0,0-7.34,3L325,449.6a10.38,10.38,0,0,1-14.68-14.68l23.25-23.25a10.34,10.34,0,0,1,7.34-3h36.51a165.67,165.67,0,0,0-.84,16.61c0,1.39.07,2.76.11,4.15ZM400.84,340l-18.09-18.09a10.38,10.38,0,0,0-7.34-3H351.13a10.38,10.38,0,1,1,0-20.76H384a10.32,10.32,0,0,1,7.35,3l21.71,21.71A163.28,163.28,0,0,0,400.84,340Zm148,6.35H656.58a140.81,140.81,0,0,1,24.09,78.94c0,74.81-58.31,136.23-131.86,141.29Zm122.46,173,24,24a10.38,10.38,0,0,0,7.34,3h24.28a10.38,10.38,0,1,1,0,20.76H694a10.32,10.32,0,0,1-7.35-3L658.1,535.52a162.66,162.66,0,0,0,13.17-16.19Zm29.31-110.7h36.51a10.32,10.32,0,0,1,7.34,3l23.25,23.25a10.38,10.38,0,0,1-7.34,17.72,10.28,10.28,0,0,1-7.33-3l-17.18-17.17a10.34,10.34,0,0,0-7.34-3H701.32c0-1.39.1-2.76.1-4.15a159.94,159.94,0,0,0-.84-16.61Zm-61-83.08H438.45a141.41,141.41,0,0,1,201.1,0ZM539,195a55.07,55.07,0,0,1,55,55,54.41,54.41,0,0,1-4.18,21,161.8,161.8,0,0,0-101.65,0A55,55,0,0,1,539,195ZM155,232.39H465.32a75.53,75.53,0,0,0,3.6,46.34,162.86,162.86,0,0,0-41.73,28.86L406,286.43a31,31,0,0,0-22-9.13H351.12A31.18,31.18,0,0,0,320,308.44c0,1.07.06,2.14.16,3.19H134.24V253.15A20.78,20.78,0,0,1,155,232.39Zm-20.75,100H330.37c.27,0,.52-.06.78-.08a30.92,30.92,0,0,0,20,7.28h20l19.57,19.58A160.45,160.45,0,0,0,381,387.87h-40a30.94,30.94,0,0,0-22,9.12l-23.25,23.25a31.13,31.13,0,1,0,44,44l14.13-14.13h24.69a161,161,0,0,0,17,51.07L371.11,525.6h-20a31.14,31.14,0,0,0,0,62.28H384a31,31,0,0,0,22-9.13l28.91-28.91a161.66,161.66,0,0,0,103.29,37.81l.2,0,.11,0,.46,0a161.68,161.68,0,0,0,104.06-37.83L672,578.74a30.94,30.94,0,0,0,22,9.12h32.89a31.14,31.14,0,0,0,0-62.27h-20L682.5,501.21a161.38,161.38,0,0,0,17-51.07H724.2l14.13,14.13a31.14,31.14,0,0,0,44-44L759.11,397a30.93,30.93,0,0,0-22-9.12H697a161.62,161.62,0,0,0-9.72-28.73l19.57-19.57h20a30.87,30.87,0,0,0,19.9-7.2h197V600L902.63,530.8a20.63,20.63,0,0,0-35.44,0L768.3,697.05H309.71L210.81,530.8a20.63,20.63,0,0,0-35.44,0L134.24,600Zm58.85,209.24L313,743.26H73.14Zm450.3,410.94H434.61l32.83-130.15H610.55Zm310.75-209.3a10.38,10.38,0,0,0-10.38,10.38v27.25A20.78,20.78,0,0,1,923,801.65H155a20.78,20.78,0,0,1-20.75-20.76V764H313.29A20.61,20.61,0,0,0,331,732.87l-8.95-15.06H756l-9,15.06A20.61,20.61,0,0,0,764.71,764H963.43a10.38,10.38,0,0,0,0-20.76H765L884.91,541.62l120,201.64Z"/></svg>