<svg id="Layer_1" data-name="Layer 1" xmlns="http://www.w3.org/2000/svg" viewBox="0 0 424 424"><defs><style>.cls-1{fill:#efefef;stroke:#efefef;stroke-miterlimit:10;stroke-width:3px;}</style></defs><title>seo.svg</title><path class="cls-1" d="M181.7,54.09A127.55,127.55,0,1,0,309.25,181.64,127.55,127.55,0,0,0,181.7,54.09Zm0,12.15a115.26,115.26,0,0,1,94.24,49l-15.18,15.19A24,24,0,0,0,248.51,127a24.28,24.28,0,0,0-24.29,24.29,24,24,0,0,0,3.44,12.26l-39.77,39.78a23.57,23.57,0,0,0-24.53,0l-27.62-27.63a24,24,0,0,0,3.44-12.26,24.25,24.25,0,0,0-47.73-6.07H68.92A115.56,115.56,0,0,1,181.7,66.24Zm79,85a12.15,12.15,0,1,1-12.15-12.15A12.15,12.15,0,0,1,260.66,151.27Zm-72.89,72.89A12.15,12.15,0,1,1,175.63,212,12.15,12.15,0,0,1,187.77,224.16ZM127,163.42a12.15,12.15,0,1,1-12.14-12.15A12.15,12.15,0,0,1,127,163.42ZM237.77,282.55A115.46,115.46,0,0,1,66.29,181.8a117.75,117.75,0,0,1,.65-12.31H91.45a24.29,24.29,0,0,0,23.44,18.22,24,24,0,0,0,12.26-3.44l27.62,27.62a24,24,0,0,0-3.44,12.27,24.3,24.3,0,0,0,48.59,0,24,24,0,0,0-3.44-12.27l39.77-39.77a23.89,23.89,0,0,0,12.26,3.45,24.3,24.3,0,0,0,24.3-24.3A23.89,23.89,0,0,0,269.36,139l13.25-13.24A115.3,115.3,0,0,1,237.77,282.55Z"/><path class="cls-1" d="M333.55,90.53A24.3,24.3,0,0,0,357,72.31h37.31V60.16H357a24.25,24.25,0,0,0-47.73,6.08A23.89,23.89,0,0,0,312.7,78.5L302,89.17a151.85,151.85,0,1,0-37.91,219.92l18.33,18.33L291,336l48.9,48.89a31.84,31.84,0,0,0,45-45L336.06,291l-8.59-8.59-18.33-18.33a151.34,151.34,0,0,0,0-164.82l12.15-12.15A23.89,23.89,0,0,0,333.55,90.53Zm0-36.44A12.15,12.15,0,1,1,321.4,66.24,12.15,12.15,0,0,1,333.55,54.09Zm42.82,294.37a19.7,19.7,0,1,1-27.54,28.17l-.32-.32-48.89-48.89,27.85-27.86ZM318.89,291,291,318.83,274.22,302c.85-.66,1.66-1.38,2.5-2.06s1.82-1.48,2.73-2.24c1.33-1.12,2.64-2.25,3.93-3.41.66-.6,1.29-1.21,1.94-1.82q3.74-3.5,7.24-7.23c.6-.65,1.21-1.28,1.82-1.95,1.16-1.28,2.29-2.6,3.4-3.93.77-.9,1.51-1.8,2.25-2.72s1.39-1.64,2-2.5Zm-23.56-28.21c-1.91,2.67-3.89,5.29-6,7.81-.61.74-1.26,1.45-1.88,2.17q-2.79,3.24-5.76,6.29c-.86.89-1.74,1.77-2.63,2.63q-3,3-6.29,5.76c-.73.61-1.44,1.27-2.17,1.88-2.52,2.09-5.14,4.06-7.81,6a139.91,139.91,0,1,1,32.51-32.51Z"/></svg>