<svg id="Layer_1" data-name="Layer 1" xmlns="http://www.w3.org/2000/svg" xmlns:xlink="http://www.w3.org/1999/xlink" viewBox="0 0 1078 1078"><defs><style>.cls-1{fill:url(#linear-gradient);}.cls-2{opacity:0.05;isolation:isolate;}.cls-3{fill:#f27b3b;}.cls-4{fill:#f8eee4;}.cls-5{fill:#ec5d10;}.cls-6{fill:#fff;}.cls-7{fill:#f06a00;}.cls-8{fill:#e8b28e;}</style><linearGradient id="linear-gradient" x1="1012.68" y1="274.94" x2="-1452.65" y2="1949.57" gradientUnits="userSpaceOnUse"><stop offset="0" stop-color="#ec5d10"/><stop offset="1" stop-color="#c41000"/></linearGradient></defs><title>Strategy_ServiceIcon</title><path class="cls-1" d="M1047.11,325.73c-46.2-117.56-188.52-188.06-309.06-141.41-137.6,53.26-92,272.12-217,316.37C453.58,524.6,353.78,435.3,285.57,421.6,159.88,396.37,46.09,485.06,18.07,607.87-10.51,733.17,35.33,900.52,173,934.53,337,975,422.4,827.62,560,785.3c141.17-43.44,298.13,59.15,415-65.67,86.34-92.21,117.9-277.48,72.15-393.9Z"/><path class="cls-2" d="M783.52,818.14H658.65V648.49l.38.23c32.33,18.67,76.85,2.09,99.43-37s14.68-86-17.65-104.63c-25.38-14.65-58.27-7.58-82.16,15.06V468A20.66,20.66,0,0,0,638,447.33H565.05A289.15,289.15,0,0,1,609,361.9,147.71,147.71,0,0,0,486.77,126.17C408,128,343.92,192.61,342.64,271.41a147,147,0,0,0,30.43,92.25,265.4,265.4,0,0,1,43,83.67H355.63a20.66,20.66,0,0,0-20.09,15.81L292.83,640a20.66,20.66,0,0,0,20.09,25.52h37.91L341.6,816.19a20.66,20.66,0,0,0,20.62,21.93H458v92.79a20.66,20.66,0,0,0,20.67,20.66H588.77v28.55a19.28,19.28,0,0,0,19.28,19.28H783.52a19.29,19.29,0,0,0,19.28-19.28V837.42a19.29,19.29,0,0,0-19.28-19.28Z"/><path class="cls-3" d="M778,469.87c-25.38-14.65-58.27-7.58-82.16,15.06V430.8a20.66,20.66,0,0,0-20.67-20.67H392.83A20.67,20.67,0,0,0,372.74,426L330,602.84a20.66,20.66,0,0,0,20.09,25.51H388L378.8,779a20.66,20.66,0,0,0,20.62,21.93h95.82v92.79a20.67,20.67,0,0,0,20.66,20.67H675.18a20.67,20.67,0,0,0,20.67-20.67V611.29l.38.23c32.33,18.67,76.85,2.09,99.43-37s14.68-86-17.65-104.63Z"/><path class="cls-4" d="M840,800.22v142.7a19.29,19.29,0,0,1-19.28,19.28H645.25A19.28,19.28,0,0,1,626,942.92V800.22a19.28,19.28,0,0,1,19.28-19.28H820.72A19.29,19.29,0,0,1,840,800.22Z"/><path class="cls-5" d="M711.13,841.53H676.61a10.33,10.33,0,1,1,0-20.66h34.52a10.33,10.33,0,1,1,0,20.66Z"/><path class="cls-4" d="M840,800.22v142.7a19.29,19.29,0,0,1-19.28,19.28H786.83a19.29,19.29,0,0,0,19.28-19.28V800.22a19.29,19.29,0,0,0-19.28-19.28h33.89A19.29,19.29,0,0,1,840,800.22Z"/><path class="cls-6" d="M840,837.59V942.92a19.29,19.29,0,0,1-19.28,19.28H645.25A19.28,19.28,0,0,1,626,942.92V910.58h36.37A20.61,20.61,0,0,0,677,904.52l27.44-27.44A20.79,20.79,0,0,1,719,871h79a20.69,20.69,0,0,0,8.1-1.65,20.31,20.31,0,0,0,6.51-4.4Z"/><path class="cls-6" d="M840,837.59V942.92a19.29,19.29,0,0,1-19.28,19.28H786.83a19.29,19.29,0,0,0,19.28-19.28V869.37a20.31,20.31,0,0,0,6.51-4.4Z"/><path class="cls-5" d="M527.16,722.51c0,1,0,2-.13,3a35.1,35.1,0,1,1,.13-3Z"/><path class="cls-3" d="M527,725.48a35.13,35.13,0,0,1-54.34,26.4A35.15,35.15,0,0,1,527,725.48Z"/><path class="cls-4" d="M524,89c-78.79,1.86-142.85,66.44-144.13,145.23a147,147,0,0,0,30.43,92.26c34.36,44.77,53.21,99.41,55,155.71H589.82c1.9-57,22.2-111.59,56.34-157.48A147.71,147.71,0,0,0,524,89Z"/><path class="cls-4" d="M675.28,236.67a146.91,146.91,0,0,1-29.12,88C612,370.6,591.72,425.2,589.82,482.17h-30.5c1.9-57,22.2-111.57,56.34-157.47a147.71,147.71,0,0,0-103.35-235q5.76-.62,11.65-.74A147.72,147.72,0,0,1,675.28,236.67Z"/><path class="cls-4" d="M585.19,582.2H469.9a20.66,20.66,0,0,1-20.66-20.67V494a20.67,20.67,0,0,1,20.66-20.67H585.19A20.67,20.67,0,0,1,605.85,494v67.52A20.66,20.66,0,0,1,585.19,582.2Z"/><path class="cls-7" d="M887.61,507.85A30.16,30.16,0,1,1,909,499h0A30.09,30.09,0,0,1,887.61,507.85Zm14-16.13h0Zm-14-23.54a9.51,9.51,0,1,0,6.73,2.78A9.49,9.49,0,0,0,887.61,468.18Z"/><path class="cls-7" d="M242.87,645.53a30.16,30.16,0,1,1,21.34-8.82h0A30.09,30.09,0,0,1,242.87,645.53Zm14-16.13h0Zm-14-23.54a9.51,9.51,0,1,0,6.73,2.78A9.47,9.47,0,0,0,242.87,605.86Z"/><path class="cls-8" d="M857.05,651.44h-6.72v-6.72a10.33,10.33,0,0,0-20.66,0v6.72H823a10.33,10.33,0,0,0,0,20.66h6.72v6.72a10.33,10.33,0,0,0,20.66,0V672.1h6.72a10.33,10.33,0,1,0,0-20.66Z"/><path class="cls-8" d="M266.65,329.64h-6.72v-6.72a10.34,10.34,0,0,0-20.67,0v6.72h-6.71a10.33,10.33,0,1,0,0,20.66h6.71V357a10.34,10.34,0,0,0,20.67,0V350.3h6.72a10.33,10.33,0,1,0,0-20.66Z"/><path class="cls-5" d="M556.12,726.66a10.34,10.34,0,0,1-10.33-10.33,47.64,47.64,0,0,0-47.58-47.59,10.33,10.33,0,1,1,0-20.66,68.32,68.32,0,0,1,68.24,68.25A10.33,10.33,0,0,1,556.12,726.66Z"/><path class="cls-5" d="M556.12,332.3a10.34,10.34,0,0,0-10.33,10.33v19.06a35.85,35.85,0,0,1-36.49,0V342.63a10.33,10.33,0,1,0-20.66,0V473.35a10.33,10.33,0,1,0,20.66,0V437.66a57,57,0,0,0,36.49,0v35.68a10.33,10.33,0,1,0,20.66,0V342.63a10.33,10.33,0,0,0-10.33-10.33ZM545.79,415a35.85,35.85,0,0,1-36.49,0V384.35a57,57,0,0,0,36.49,0Z"/><path class="cls-5" d="M820.72,770.61H645.25a29.65,29.65,0,0,0-29.61,29.61V904H515.9a10.34,10.34,0,0,1-10.33-10.33V811.25h41.86a30.77,30.77,0,0,0,21.92-9.08l7-7a10.33,10.33,0,1,0-14.61-14.61l-7,7a10.28,10.28,0,0,1-7.31,3h-148a10.35,10.35,0,0,1-10.31-11l8.64-140.93H408.5a31.06,31.06,0,0,0,28.2-18.14l1.13-2.48A10.33,10.33,0,1,0,419,609.5L417.9,612a10.37,10.37,0,0,1-9.4,6H350.12a10.33,10.33,0,0,1-10.05-12.75l42.71-176.89a10.31,10.31,0,0,1,10.05-7.91h52.72a265.46,265.46,0,0,1,8.44,47A31,31,0,0,0,438.91,494v67.53a31,31,0,0,0,31,31H585.19a31,31,0,0,0,31-31V494a31,31,0,0,0-15.06-26.53,259.36,259.36,0,0,1,8.83-47h65.22a10.34,10.34,0,0,1,10.33,10.33v54.13a10.33,10.33,0,0,0,17.44,7.5c21.17-20.05,49.26-25.52,69.89-13.61,27.35,15.79,33.57,56.39,13.87,90.51C777,586.17,762.53,598.84,746,605c-15.8,5.88-31.6,5-44.5-2.37l-.37-.23a10.34,10.34,0,0,0-15.61,8.89V779a10.34,10.34,0,0,0,20.67,0V626.9c14.77,4.24,31,3.43,47-2.54,21-7.83,39.28-23.7,51.4-44.7,25.4-44,15.78-97.25-21.43-118.73-23-13.28-52-11.61-77,3.26V430.8a31,31,0,0,0-31-31H616.75a280.42,280.42,0,0,1,37.7-68.93,158.06,158.06,0,1,0-252.38,1.89,254,254,0,0,1,36.87,67H392.83a30.91,30.91,0,0,0-30.13,23.72L320,600.41a31,31,0,0,0,30.13,38.28h26.93l-8.56,139.67a31,31,0,0,0,30.94,32.9h85.48v82.45a31,31,0,0,0,31,31h99.73v18.21a29.65,29.65,0,0,0,29.62,29.61H768.8a10.33,10.33,0,1,0,0-20.66H645.26a9,9,0,0,1-9-9v-22h26a31.1,31.1,0,0,0,21.92-9.09l27.43-27.42a10.32,10.32,0,0,1,7.34-3h79a31.15,31.15,0,0,0,12.16-2.48,30.5,30.5,0,0,0,9.75-6.6l9.75-9.74v80.38a9,9,0,0,1-8.95,9h-54.3a10.33,10.33,0,1,0,0,20.66h54.29a29.65,29.65,0,0,0,29.62-29.61V800.23a29.66,29.66,0,0,0-29.62-29.62ZM595.52,561.53a10.35,10.35,0,0,1-10.33,10.34H469.9a10.35,10.35,0,0,1-10.33-10.34V494a10.34,10.34,0,0,1,10.33-10.33H585.19A10.34,10.34,0,0,1,595.52,494ZM390.17,234.38a137.39,137.39,0,1,1,247.7,84.15C605.71,361.76,586.08,411.6,580.81,463H474.34c-5.11-52.47-24.32-101.72-55.88-142.83a135.9,135.9,0,0,1-28.29-85.8ZM805.27,857.7a9.82,9.82,0,0,1-3.18,2.15,10.39,10.39,0,0,1-4.08.84H719a30.93,30.93,0,0,0-21.94,9.08l-27.46,27.47a10.34,10.34,0,0,1-7.28,3h-26v-100a9,9,0,0,1,9-9H820.72a9,9,0,0,1,8.95,9v33.08Z"/><path class="cls-4" d="M724.83,233.4a10.33,10.33,0,0,0,10.33,10.33h21.18a10.33,10.33,0,0,0,0-20.66H735.16A10.33,10.33,0,0,0,724.83,233.4Z"/><path class="cls-4" d="M723.33,196.61a10.32,10.32,0,0,0,6-2l21.18-15.31a10.33,10.33,0,1,0-12.11-16.75l-21.18,15.32a10.33,10.33,0,0,0,6.06,18.7Z"/><path class="cls-4" d="M729.38,272.15a10.33,10.33,0,0,0-12.11,16.75l21.18,15.31a10.33,10.33,0,1,0,12.11-16.75Z"/><path class="cls-4" d="M323.26,233.4a10.32,10.32,0,0,0-10.33-10.33H291.75a10.33,10.33,0,1,0,0,20.66h21.18A10.32,10.32,0,0,0,323.26,233.4Z"/><path class="cls-4" d="M297.54,179.34l21.17,15.31a10.33,10.33,0,0,0,12.11-16.75l-21.17-15.31a10.33,10.33,0,1,0-12.11,16.75Z"/><path class="cls-4" d="M333.14,274.47a10.33,10.33,0,0,0-14.43-2.32l-21.17,15.31a10.33,10.33,0,1,0,12.11,16.75l21.17-15.31a10.34,10.34,0,0,0,2.32-14.43Z"/><path class="cls-5" d="M563.87,521.08H490.46a10.34,10.34,0,0,1,0-20.67h73.41a10.34,10.34,0,0,1,0,20.67Z"/><path class="cls-5" d="M563.87,556.18H490.46a10.33,10.33,0,0,1,0-20.66h73.41a10.33,10.33,0,1,1,0,20.66Z"/></svg>