<svg id="Layer_1" data-name="Layer 1" xmlns="http://www.w3.org/2000/svg" viewBox="0 0 1280 706.9"><defs><style>.cls-1{fill:#000000;opacity:0.1;}</style></defs><title>Background</title><path class="cls-1" d="M.19,1.72H76c63.87,0,106.45,37.13,106.45,93s-42.58,93-106.45,93H.19ZM76,146.34c31.15,0,51.67-20.25,51.67-51.67S107.16,43,76,43H53.16V146.34Z"/><path class="cls-1" d="M205.05,1.72H348.11v43.1H258V76h85.16v35.57H258v33h92.69v43.1H205.05Z"/><path class="cls-1" d="M360.84,1.72h56.09l40.24,145.66h2.6L499.49,1.72H556.1l-55.05,185.9H415.63Z"/><path class="cls-1" d="M573.49,1.72H716.56v43.1h-90.1V76h85.17v35.57H626.46v33h92.7v43.1H573.49Z"/><path class="cls-1" d="M741.49,1.72h54.78V140.89H876.5v46.73h-135Z"/><path class="cls-1" d="M883.26,94.67c0-59.2,42.06-96.59,104.38-96.59,62.05,0,104.11,37.39,104.11,96.59s-42.06,96.85-104.11,96.85C925.32,191.52,883.26,153.87,883.26,94.67Zm153.71,0c0-31.16-20-51.93-49.33-51.93S938,63.51,938,94.67c0,31.42,20.26,51.93,49.6,51.93S1037,126.09,1037,94.67Z"/><path class="cls-1" d="M1114.61,1.72h86.2c48.81,0,79.19,26,79.19,66s-30.64,66-79.71,66h-31.16v54h-54.52Zm80,92.43c18.43,0,30.64-10.39,30.64-26.48S1213,41.18,1194.58,41.18h-25.45v53Z"/><path class="cls-1" d="M.19,507.65H81.45c68.45,0,114.09,39.8,114.09,99.63S149.9,706.9,81.45,706.9H.19Zm81.26,155c33.39,0,55.37-21.7,55.37-55.37s-22-55.38-55.37-55.38H57V662.65Z"/><path class="cls-1" d="M219.75,507.65H320.21c48.7,0,81,27.27,81,67.9,0,32.56-21.15,55.38-50.09,60.67l-2.23.55,58.72,70.13h-65.4l-49.53-65.67H278.47V706.9H219.75Zm90.16,95.45c18.65,0,32.56-10,32.56-26.71,0-16.42-13.91-26.44-32.56-26.44H278.47V603.1Z"/><path class="cls-1" d="M426.23,507.65H579.56v46.2H483v33.39h91.28v38.13H483V660.7h99.35v46.2H426.23Z"/><path class="cls-1" d="M655.81,507.65h86.27L804.41,706.9H744l-9.47-30.33H663.05l-9.47,30.33H593.2Zm67.35,127.18-22.82-77.36h-2.78l-22.82,77.36Z"/><path class="cls-1" d="M823.06,507.65H900.7l45.36,129.12h2.78l44.25-129.12h79V706.9h-56.77V587.24h-2.78L970.27,706.9H924.91l-42.3-119.38h-2.78V706.9H823.06Z"/><path class="cls-1" d="M1097.17,641.23h55.1c.28,16.69,13.91,27.55,37.84,27.55,18.93,0,31.17-7,31.17-19.2,0-14.48-16.42-17.81-36.73-20.6-34.23-4.73-86-8.9-86-60.11,0-39.51,34-65.11,86.55-65.11,52.87,0,88.21,28.38,88.21,69.57h-53.15c0-17.53-13.08-27.55-33.12-27.55-18.64,0-29.77,7.79-29.77,18.92,0,15,19.75,17.53,42.85,20.87,34,5,79.87,12.24,79.87,60.39,0,39.51-36.46,65.11-92.11,65.11C1133.35,711.07,1097.17,682.41,1097.17,641.23Z"/><path class="cls-1" d="M105.81,394.54.19,202.91H93.08l55.14,116.93h4.25l51.74-116.93h94.17L195.31,394.54V493.6h-89.5Z"/><path class="cls-1" d="M287,348.26c0-92.57,68.72-151,170.52-151,101.38,0,170.1,58.46,170.1,151s-68.72,151.43-170.1,151.43C355.67,499.69,287,440.82,287,348.26Zm251.12,0c0-48.72-32.67-81.2-80.6-81.2s-81,32.48-81,81.2c0,49.12,33.08,81.19,81,81.19S538.07,397.38,538.07,348.26Z"/><path class="cls-1" d="M662.38,374.24V202.91h89.5V371.4c0,35.32,20.78,58.05,53,58.05,31.81,0,53-23.14,53-58.05V202.91h89.5V374.24c0,76.73-57.69,125.45-142.52,125.45S662.38,451,662.38,374.24Z"/><path class="cls-1" d="M993.68,202.91h153.13c74.23,0,123.43,39.79,123.43,99.06,0,47.5-32.24,80.8-76.35,88.51l-3.39.81L1280,493.6h-99.68l-75.51-95.81h-21.63V493.6h-89.5Zm137.43,139.26c28.42,0,49.63-14.62,49.63-39,0-23.95-21.21-38.57-49.63-38.57h-47.93v77.55Z"/></svg>